<svg data-v-fde0c5aa="" xmlns="http://www.w3.org/2000/svg" viewBox="0 0 300 300" class="iconLeft"><!----><defs data-v-fde0c5aa=""><!----></defs><rect data-v-fde0c5aa="" fill="transparent" x="0" y="0" width="50px" height="50px" class="logo-background-square"></rect><defs data-v-fde0c5aa=""><!----></defs><g data-v-fde0c5aa="" id="b26854b9-0c3f-4ded-b127-105a237cf18f" fill="#000000" transform="matrix(2.6254042176836907,0,0,2.6254042176836907,92.05288695561347,127.98598565976006)"><path d="M8.88 12.15L8.88 8.72L9.32 8.72L9.32 12.35L9.32 12.35Q8.68 12.96 7.79 13.29L7.79 13.29L7.79 13.29Q6.90 13.61 5.89 13.61L5.89 13.61L5.89 13.61Q4.45 13.61 3.29 12.96L3.29 12.96L3.29 12.96Q2.13 12.32 1.46 11.19L1.46 11.19L1.46 11.19Q0.80 10.05 0.80 8.65L0.80 8.65L0.80 8.65Q0.80 7.25 1.46 6.12L1.46 6.12L1.46 6.12Q2.13 4.98 3.29 4.34L3.29 4.34L3.29 4.34Q4.45 3.70 5.89 3.70L5.89 3.70L5.89 3.70Q6.94 3.70 7.83 4.02L7.83 4.02L7.83 4.02Q8.71 4.34 9.34 4.98L9.34 4.98L9.06 5.31L9.06 5.31Q7.84 4.13 5.91 4.13L5.91 4.13L5.91 4.13Q4.59 4.13 3.54 4.72L3.54 4.72L3.54 4.72Q2.48 5.32 1.88 6.36L1.88 6.36L1.88 6.36Q1.27 7.39 1.27 8.65L1.27 8.65L1.27 8.65Q1.27 9.91 1.88 10.95L1.88 10.95L1.88 10.95Q2.48 11.98 3.54 12.58L3.54 12.58L3.54 12.58Q4.59 13.17 5.91 13.17L5.91 13.17L5.91 13.17Q7.74 13.17 8.88 12.15L8.88 12.15ZM14.77 6.23L14.77 6.23Q16.07 6.23 16.77 6.90L16.77 6.90L16.77 6.90Q17.46 7.57 17.46 8.85L17.46 8.85L17.46 13.55L17.01 13.55L17.01 12.10L17.01 12.10Q16.66 12.80 15.97 13.20L15.97 13.20L15.97 13.20Q15.27 13.59 14.31 13.59L14.31 13.59L14.31 13.59Q13.09 13.59 12.40 13.03L12.40 13.03L12.40 13.03Q11.70 12.47 11.70 11.55L11.70 11.55L11.70 11.55Q11.70 10.67 12.33 10.11L12.33 10.11L12.33 10.11Q12.96 9.56 14.35 9.56L14.35 9.56L17.00 9.56L17.00 8.85L17.00 8.85Q17.00 7.77 16.43 7.21L16.43 7.21L16.43 7.21Q15.86 6.65 14.76 6.65L14.76 6.65L14.76 6.65Q13.99 6.65 13.31 6.92L13.31 6.92L13.31 6.92Q12.64 7.18 12.17 7.63L12.17 7.63L11.91 7.29L11.91 7.29Q12.45 6.79 13.20 6.51L13.20 6.51L13.20 6.51Q13.94 6.23 14.77 6.23L14.77 6.23ZM14.34 13.20L14.34 13.20Q16.30 13.20 17.00 11.45L17.00 11.45L17.00 9.94L14.35 9.94L14.35 9.94Q13.22 9.94 12.69 10.37L12.69 10.37L12.69 10.37Q12.17 10.79 12.17 11.52L12.17 11.52L12.17 11.52Q12.17 12.31 12.75 12.75L12.75 12.75L12.75 12.75Q13.33 13.20 14.34 13.20L14.34 13.20ZM24.07 6.23L24.07 6.23Q25.06 6.23 25.87 6.70L25.87 6.70L25.87 6.70Q26.68 7.17 27.15 8.01L27.15 8.01L27.15 8.01Q27.62 8.85 27.62 9.91L27.62 9.91L27.62 9.91Q27.62 10.98 27.15 11.82L27.15 11.82L27.15 11.82Q26.68 12.66 25.87 13.13L25.87 13.13L25.87 13.13Q25.06 13.59 24.07 13.59L24.07 13.59L24.07 13.59Q23.00 13.59 22.17 13.05L22.17 13.05L22.17 13.05Q21.34 12.52 20.93 11.56L20.93 11.56L20.93 13.55L20.48 13.55L20.48 3.16L20.94 3.16L20.94 8.23L20.94 8.23Q21.35 7.29 22.18 6.76L22.18 6.76L22.18 6.76Q23.02 6.23 24.07 6.23L24.07 6.23ZM24.05 13.17L24.05 13.17Q24.93 13.17 25.64 12.76L25.64 12.76L25.64 12.76Q26.35 12.35 26.75 11.61L26.75 11.61L26.75 11.61Q27.16 10.86 27.16 9.91L27.16 9.91L27.16 9.91Q27.16 8.96 26.75 8.22L26.75 8.22L26.75 8.22Q26.35 7.49 25.64 7.08L25.64 7.08L25.64 7.08Q24.93 6.66 24.05 6.66L24.05 6.66L24.05 6.66Q23.17 6.66 22.46 7.08L22.46 7.08L22.46 7.08Q21.76 7.49 21.35 8.22L21.35 8.22L21.35 8.22Q20.94 8.96 20.94 9.91L20.94 9.91L20.94 9.91Q20.94 10.86 21.35 11.61L21.35 11.61L21.35 11.61Q21.76 12.35 22.46 12.76L22.46 12.76L22.46 12.76Q23.17 13.17 24.05 13.17L24.05 13.17ZM35.90 9.86L35.90 9.98L29.53 9.98L29.53 9.98Q29.54 10.91 29.96 11.63L29.96 11.63L29.96 11.63Q30.38 12.36 31.12 12.77L31.12 12.77L31.12 12.77Q31.85 13.17 32.76 13.17L32.76 13.17L32.76 13.17Q33.50 13.17 34.13 12.90L34.13 12.90L34.13 12.90Q34.76 12.63 35.17 12.10L35.17 12.10L35.46 12.40L35.46 12.40Q34.97 12.98 34.27 13.29L34.27 13.29L34.27 13.29Q33.57 13.59 32.76 13.59L32.76 13.59L32.76 13.59Q31.70 13.59 30.86 13.13L30.86 13.13L30.86 13.13Q30.03 12.66 29.55 11.82L29.55 11.82L29.55 11.82Q29.08 10.98 29.08 9.91L29.08 9.91L29.08 9.91Q29.08 8.85 29.52 8.01L29.52 8.01L29.52 8.01Q29.96 7.17 30.74 6.70L30.74 6.70L30.74 6.70Q31.53 6.23 32.49 6.23L32.49 6.23L32.49 6.23Q33.45 6.23 34.22 6.69L34.22 6.69L34.22 6.69Q35 7.15 35.45 7.98L35.45 7.98L35.45 7.98Q35.90 8.81 35.90 9.86L35.90 9.86ZM32.49 6.65L32.49 6.65Q31.68 6.65 31.02 7.03L31.02 7.03L31.02 7.03Q30.37 7.41 29.97 8.08L29.97 8.08L29.97 8.08Q29.58 8.76 29.54 9.60L29.54 9.60L35.46 9.60L35.46 9.60Q35.41 8.76 35.01 8.08L35.01 8.08L35.01 8.08Q34.61 7.41 33.96 7.03L33.96 7.03L33.96 7.03Q33.31 6.65 32.49 6.65L32.49 6.65ZM45.50 12.15L45.50 8.72L45.95 8.72L45.95 12.35L45.95 12.35Q45.30 12.96 44.42 13.29L44.42 13.29L44.42 13.29Q43.53 13.61 42.52 13.61L42.52 13.61L42.52 13.61Q41.08 13.61 39.91 12.96L39.91 12.96L39.91 12.96Q38.75 12.32 38.09 11.19L38.09 11.19L38.09 11.19Q37.42 10.05 37.42 8.65L37.42 8.65L37.42 8.65Q37.42 7.25 38.09 6.12L38.09 6.12L38.09 6.12Q38.75 4.98 39.91 4.34L39.91 4.34L39.91 4.34Q41.08 3.70 42.52 3.70L42.52 3.70L42.52 3.70Q43.57 3.70 44.45 4.02L44.45 4.02L44.45 4.02Q45.33 4.34 45.96 4.98L45.96 4.98L45.68 5.31L45.68 5.31Q44.46 4.13 42.53 4.13L42.53 4.13L42.53 4.13Q41.22 4.13 40.16 4.72L40.16 4.72L40.16 4.72Q39.10 5.32 38.50 6.36L38.50 6.36L38.50 6.36Q37.90 7.39 37.90 8.65L37.90 8.65L37.90 8.65Q37.90 9.91 38.50 10.95L38.50 10.95L38.50 10.95Q39.10 11.98 40.16 12.58L40.16 12.58L40.16 12.58Q41.22 13.17 42.53 13.17L42.53 13.17L42.53 13.17Q44.37 13.17 45.50 12.15L45.50 12.15ZM51.76 13.59L51.76 13.59Q50.75 13.59 49.93 13.13L49.93 13.13L49.93 13.13Q49.11 12.66 48.65 11.82L48.65 11.82L48.65 11.82Q48.19 10.98 48.19 9.91L48.19 9.91L48.19 9.91Q48.19 8.85 48.65 8.01L48.65 8.01L48.65 8.01Q49.11 7.17 49.93 6.70L49.93 6.70L49.93 6.70Q50.75 6.23 51.76 6.23L51.76 6.23L51.76 6.23Q52.78 6.23 53.59 6.70L53.59 6.70L53.59 6.70Q54.40 7.17 54.87 8.01L54.87 8.01L54.87 8.01Q55.33 8.85 55.33 9.91L55.33 9.91L55.33 9.91Q55.33 10.98 54.87 11.82L54.87 11.82L54.87 11.82Q54.40 12.66 53.59 13.13L53.59 13.13L53.59 13.13Q52.78 13.59 51.76 13.59L51.76 13.59ZM51.76 13.17L51.76 13.17Q52.64 13.17 53.35 12.76L53.35 12.76L53.35 12.76Q54.05 12.35 54.46 11.61L54.46 11.61L54.46 11.61Q54.87 10.86 54.87 9.91L54.87 9.91L54.87 9.91Q54.87 8.96 54.46 8.22L54.46 8.22L54.46 8.22Q54.05 7.49 53.35 7.08L53.35 7.08L53.35 7.08Q52.64 6.66 51.76 6.66L51.76 6.66L51.76 6.66Q50.88 6.66 50.17 7.08L50.17 7.08L50.17 7.08Q49.46 7.49 49.06 8.22L49.06 8.22L49.06 8.22Q48.65 8.96 48.65 9.91L48.65 9.91L48.65 9.91Q48.65 10.86 49.06 11.61L49.06 11.61L49.06 11.61Q49.46 12.35 50.17 12.76L50.17 12.76L50.17 12.76Q50.88 13.17 51.76 13.17L51.76 13.17ZM61.04 6.23L61.04 6.23Q62.40 6.23 63.18 7.02L63.18 7.02L63.18 7.02Q63.97 7.81 63.97 9.28L63.97 9.28L63.97 13.55L63.50 13.55L63.50 9.31L63.50 9.31Q63.50 8.02 62.85 7.34L62.85 7.34L62.85 7.34Q62.20 6.66 61.00 6.66L61.00 6.66L61.00 6.66Q59.64 6.66 58.86 7.47L58.86 7.47L58.86 7.47Q58.07 8.27 58.07 9.63L58.07 9.63L58.07 13.55L57.61 13.55L57.61 6.29L58.06 6.29L58.06 8.06L58.06 8.06Q58.41 7.21 59.18 6.72L59.18 6.72L59.18 6.72Q59.96 6.23 61.04 6.23L61.04 6.23Z"></path></g><defs data-v-fde0c5aa=""><linearGradient data-v-fde0c5aa="" gradientTransform="rotate(25)" id="b868a34c-bb41-4456-bc25-4ec8e4d571f7" x1="0%" y1="0%" x2="100%" y2="0%"><stop data-v-fde0c5aa="" offset="0%" stop-color="#6A4F4C" stop-opacity="1"></stop><stop data-v-fde0c5aa="" offset="100%" stop-color="#A0A29B" stop-opacity="1"></stop></linearGradient></defs><g data-v-fde0c5aa="" id="020bddd0-b390-484f-b301-5fe2e455c05c" stroke="none" fill="url(#b868a34c-bb41-4456-bc25-4ec8e4d571f7)" transform="matrix(0.4572578929006409,0,0,0.4572578929006409,37.713710535496794,127.13710535496796)"><path d="M95 52c0-12.871-5.692-24.431-14.682-32.318C72.431 10.692 60.871 5 48 5 24.29 5 5 24.29 5 48c0 12.868 5.69 24.426 14.677 32.313C27.564 89.306 39.126 95 52 95c.084 0 .166-.006.25-.006s.166.006.25.006C75.972 95 95 75.972 95 52.5c0-.084-.006-.166-.006-.25S95 52.084 95 52zM21.828 73.371a36.786 36.786 0 0 1-6.822-21.121c.135-20.511 16.732-37.109 37.244-37.244a36.784 36.784 0 0 1 21.121 6.822C80.224 28.473 84.5 37.758 84.5 48c0 20.126-16.374 36.5-36.5 36.5-10.242 0-19.527-4.276-26.172-11.129zM6 48C6 24.841 24.841 6 48 6c9.858 0 18.926 3.422 26.1 9.13A42.74 42.74 0 0 0 52 9C28.29 9 9 28.29 9 52a42.741 42.741 0 0 0 6.127 22.095C9.421 66.923 6 57.856 6 48zm46 41c-10.08 0-19.227-4.055-25.905-10.615C32.269 82.854 39.838 85.5 48 85.5c20.678 0 37.5-16.822 37.5-37.5 0-8.162-2.646-15.731-7.115-21.905C84.945 32.773 89 41.92 89 52c0 20.402-16.598 37-37 37z"></path></g><!----></svg>